PathFileType	4	(X/Y/Z)	C:\Users\Basilio\Documents\Thesis Gigler\squatting_fais\c3dfiles\039\SLS_pre_back3\markers_experimental.trc
DataRate	CameraRate	NumFrames	NumMarkers	Units	OrigDataRate	OrigDataStartFrame	OrigNumFrames
200.000000	200.000000	4	64	mm	200.000000	271	2175
Frame#	Time	FHD			LBHD			RBHD			C7			T10			CLAV			LSHO			LUUPA			LMUPA			LDUPA			LLEP			LMEP			LRAD			LUL			LRFIN			RSHO			RUPA1			RMUPA			RDUPA			RLEP			RMEP			RRAD			RUL			RUFIN			LASI			RASI			USACR			LSACR			RSACR			LTHI1			LTHI2			LTHI3			LTHI4			LLFC			LMFC			LTIB1			LTIB2			LTIB3			LTIB4			LLMAL			LMMAL			LHEE			LMT1			LMT2			LMT5			RTHI			RTHI2			RTHI3			RTHI4			RLFC			RMFC			RTIB1			RTIB2			RTIB3			RTIB4			RLMAL			RMMAL			RHEE			RMT1			RMT2			RMT5			*61			*62			*63			
		X1	Y1	Z1	X2	Y2	Z2	X3	Y3	Z3	X4	Y4	Z4	X5	Y5	Z5	X6	Y6	Z6	X7	Y7	Z7	X8	Y8	Z8	X9	Y9	Z9	X10	Y10	Z10	X11	Y11	Z11	X12	Y12	Z12	X13	Y13	Z13	X14	Y14	Z14	X15	Y15	Z15	X16	Y16	Z16	X17	Y17	Z17	X18	Y18	Z18	X19	Y19	Z19	X20	Y20	Z20	X21	Y21	Z21	X22	Y22	Z22	X23	Y23	Z23	X24	Y24	Z24	X25	Y25	Z25	X26	Y26	Z26	X27	Y27	Z27	X28	Y28	Z28	X29	Y29	Z29	X30	Y30	Z30	X31	Y31	Z31	X32	Y32	Z32	X33	Y33	Z33	X34	Y34	Z34	X35	Y35	Z35	X36	Y36	Z36	X37	Y37	Z37	X38	Y38	Z38	X39	Y39	Z39	X40	Y40	Z40	X41	Y41	Z41	X42	Y42	Z42	X43	Y43	Z43	X44	Y44	Z44	X45	Y45	Z45	X46	Y46	Z46	X47	Y47	Z47	X48	Y48	Z48	X49	Y49	Z49	X50	Y50	Z50	X51	Y51	Z51	X52	Y52	Z52	X53	Y53	Z53	X54	Y54	Z54	X55	Y55	Z55	X56	Y56	Z56	X57	Y57	Z57	X58	Y58	Z58	X59	Y59	Z59	X60	Y60	Z60	X61	Y61	Z61	X62	Y62	Z62	X63	Y63	Z63	X64	Y64	Z64	

272	1.355	-226.0624084472657	1788.158447265625	-815.520202636719	-377.1757507324219	1756.87890625	-943.891784667969	-357.2491149902344	1762.572143554688	-803.4426879882815	-414.9933166503907	1582.997680664063	-891.4523925781252	-394.0687561035157	1273.885986328125	-908.1271972656252	-266.3974304199219	1532.996215820313	-886.775329589844	-325.5596923828126	1592.927124023438	-1053.571899414063	-160.1436462402344	1520.90234375	-1162.357788085938	-133.6065979003907	1556.202270507813	-1139.818725585938	-90.55429840087892	1524.902221679688	-1167.268310546875	-22.24209213256836	1528.697387695313	-1166.124877929688	-22.88512992858887	1461.487548828125	-1125.010131835938	247.1779785156251	1555.542602539063	-1050.170532226563	254.6167297363282	1556.33154296875	-1126.136840820313	323.9296264648438	1596.614379882813	-1040.42626953125	-315.8013000488282	1580.3486328125	-718.0526123046876	-166.1756744384766	1481.373168945313	-609.8001098632814	-133.2670288085938	1514.17333984375	-628.7767333984376	-97.29199218750003	1470.776733398438	-604.6234741210939	-32.94635009765626	1477.977172851563	-607.4689331054689	-32.37075805664063	1414.192260742188	-654.1423339843751	259.2914428710938	1500.812622070313	-674.9044799804689	256.3363342285157	1484.1435546875	-601.0352172851564	340.2717895507813	1540.175659179688	-661.9172363281251	-203.7254028320313	1100.864379882813	-1020.762329101563	-202.0461578369141	1091.905883789063	-793.9423828125002	-390.4027099609376	1148.387939453125	-903.9536743164065	-390.4888610839845	1116.162475585938	-932.1220703125002	-390.8508300781251	1115.938720703125	-872.7899169921877	-290.3553161621094	824.5762939453127	-1104.819091796875	-260.9306335449219	745.2311401367189	-1110.289916992188	-213.3877716064454	746.1983642578126	-1103.601684570313	-291.0722351074219	693.0440673828126	-1098.863525390625	-301.1642761230469	570.3341674804689	-1103.33740234375	-263.1684875488282	536.1026611328126	-995.7700805664065	-254.1401062011719	418.2834472656251	-1096.694213867188	-326.0901794433594	383.6208496093751	-1133.279174804688	-284.4171752929688	375.9866027832032	-1121.517578125	-284.2925720214844	293.3514404296876	-1089.188232421875	-357.1265869140626	129.2073974609375	-1123.150390625	-332.3426818847657	126.2817916870117	-1040.802368164063	-422.9390869140626	85.84607696533205	-1082.402954101563	-190.8492584228516	56.81460571289064	-1068.641235351563	-199.2077331542969	51.39683151245119	-1111.58154296875	-247.150375366211	31.56554603576661	-1160.228515625	-251.7510681152344	822.648864746094	-724.5405883789064	-212.2420501708985	768.9176025390627	-722.8674316406251	-180.8826446533203	772.784118652344	-730.1665649414064	-239.3888854980469	688.3433227539064	-728.5227050781251	-278.9204101562501	548.7977294921876	-747.1424560546876	-244.5047149658204	532.1091918945314	-860.9663085937502	-262.1119689941407	333.1871032714844	-752.5889892578126	-353.3493347167969	277.2809753417969	-740.2113647460939	-308.4444885253907	263.2430725097657	-740.6021728515626	-295.8690795898438	212.3876190185547	-771.2437133789065	-370.9022827148438	124.7178192138672	-744.2066040039064	-341.2545166015626	137.6612548828125	-829.023376464844	-440.4035949707032	100.7673721313477	-793.9291992187502	-215.484603881836	54.1540870666504	-805.2589111328127	-219.5946502685547	54.43494796752931	-759.0131835937501	-274.5859985351563	35.53479003906251	-707.3862915039064	nan	nan	nan	nan	nan	nan	nan	nan	nan	
273	1.36	-226.1385345458985	1788.3466796875	-815.2036132812502	-377.8829650878907	1756.804809570313	-943.036315917969	-357.4530944824219	1762.107177734375	-802.9191894531252	-415.0130615234376	1582.949829101563	-890.9799804687502	-394.2390747070314	1273.972290039063	-907.9224243164065	-266.4665527343751	1533.08740234375	-886.1953735351565	-325.6484985351563	1593.276489257813	-1052.93798828125	-159.9783630371094	1522.721313476563	-1161.612670898438	-133.4691162109375	1557.855224609375	-1138.77880859375	-90.3794631958008	1527.06494140625	-1166.375732421875	-21.9487419128418	1531.178588867188	-1165.111206054688	-22.58115768432618	1463.589599609375	-1124.070922851563	247.1953125000001	1558.565063476563	-1049.016357421875	254.7384948730469	1559.966552734375	-1125.029663085938	323.8952636718751	1599.991821289063	-1039.218627929688	-316.0754699707032	1580.78076171875	-717.6666870117189	-165.6063079833985	1483.309448242188	-609.7753295898439	-132.8113098144532	1516.069091796875	-628.8090209960939	-96.6048278808594	1473.048095703125	-604.5631103515626	-32.5550880432129	1480.737426757813	-607.5432739257814	-31.61159133911134	1416.43115234375	-654.3185424804689	259.6894226074219	1504.844116210938	-675.2305297851564	256.8792419433594	1488.406127929688	-601.4518432617189	340.4730834960938	1544.63720703125	-662.4430541992189	-203.6797637939454	1100.876831054688	-1020.582458496094	-201.9428863525391	1091.927978515625	-793.756042480469	-390.3636474609376	1148.383178710938	-903.7052001953127	-390.4006652832032	1116.066162109375	-931.923767089844	-390.7444458007814	1115.955200195313	-872.5662231445315	-290.3145751953126	824.568298339844	-1104.704833984375	-260.8639526367188	745.2499389648439	-1110.143676757813	-213.3273620605469	746.2832641601564	-1103.509155273438	-290.9627990722657	693.0092163085939	-1098.79736328125	-301.1397094726563	570.3344726562501	-1103.288696289063	-263.0210571289063	536.0510253906251	-995.6646118164065	-254.091049194336	418.285614013672	-1096.734985351563	-326.0319519042969	383.6413879394532	-1133.264892578125	-283.9868774414063	376.1738586425782	-1121.812133789063	-284.1370544433594	293.1071472167969	-1089.10595703125	-357.1566467285157	129.2286834716797	-1123.150024414063	-332.3120727539063	126.2750549316407	-1040.86083984375	-422.8880310058595	85.87252807617189	-1082.389892578125	-190.8899230957032	56.78548812866212	-1068.725219726563	-199.1807861328126	51.34925079345705	-1111.558471679688	-247.2123718261719	31.55097961425782	-1160.174438476563	-251.6748809814454	822.6345825195315	-724.3965454101564	-212.1700897216797	768.8765258789065	-722.7292480468751	-180.7717590332032	772.7280883789065	-730.0349731445314	-239.2992858886719	688.3029174804689	-728.4396362304689	-278.8345031738282	548.7998046875001	-747.0598754882814	-244.5717773437501	532.1674804687501	-860.8986816406252	-262.0689392089844	333.1500244140626	-752.5601196289064	-353.3232421875001	277.2598266601563	-740.1644287109376	-308.3991394042969	263.2249145507813	-740.5594482421876	-295.8285217285157	212.4138793945313	-771.2144165039065	-371.0881042480469	124.7757186889649	-743.9655761718751	-341.2088012695313	137.6344146728516	-829.060974121094	-440.389862060547	100.7611770629883	-793.9322509765627	-215.4464569091797	54.07946014404298	-805.203552246094	-219.615219116211	54.46718215942384	-759.0100708007814	-274.5996093750001	35.54010009765626	-707.3759765625001	nan	nan	nan	nan	nan	nan	nan	nan	nan	
274	1.365	-226.3689727783204	1788.334106445313	-814.627624511719	-377.9317321777344	1756.784790039063	-942.4714965820315	-357.6068115234376	1762.455810546875	-802.5173339843752	-414.9580993652345	1582.918334960938	-890.5505981445315	-392.630828857422	1273.775146484375	-907.1323852539065	-266.3384704589844	1533.363403320313	-885.7360839843752	-325.7408142089844	1593.650390625	-1052.240478515625	-159.6261138916016	1524.66943359375	-1160.901733398438	-133.2891540527344	1560.024047851563	-1137.702880859375	-90.34456634521486	1529.41357421875	-1165.611572265625	-21.66118240356446	1533.522338867188	-1164.184326171875	-21.94776725769043	1466.0361328125	-1123.454711914063	247.2356262207032	1561.7578125	-1047.979370117188	254.7661743164063	1563.434936523438	-1123.919067382813	323.8588562011719	1603.20556640625	-1037.870849609375	-316.1030883789063	1581.1123046875	-717.5145263671876	-165.0614166259766	1485.251342773438	-609.5404052734376	-132.4204711914063	1518.510131835938	-629.0723876953126	-96.07082366943362	1475.402954101563	-604.7069702148439	-31.91727256774903	1483.419189453125	-607.6462402343751	-30.75669288635255	1419.100219726563	-654.3187866210939	260.0663452148438	1508.903564453125	-675.6027832031251	257.5014038085938	1492.692260742188	-601.6508789062501	340.8240051269532	1548.396606445313	-662.8504028320314	-203.8679351806641	1100.828247070313	-1020.274963378906	-201.9039459228516	1091.920654296875	-793.599792480469	-390.3743591308595	1148.463623046875	-903.5012207031252	-390.401580810547	1116.106201171875	-931.6912231445315	-390.8024902343751	1115.971069335938	-872.396423339844	-290.3344421386719	824.5842285156252	-1104.562255859375	-260.4723510742188	745.0341796875001	-1110.0400390625	-213.2325439453126	746.2949218750001	-1103.442260742188	-290.8903198242188	693.0344848632814	-1098.72314453125	-301.0604858398438	570.3737182617189	-1103.222534179688	-262.9582519531251	536.0197143554689	-995.591003417969	-253.9539642333985	418.3128662109376	-1096.622802734375	-326.0524902343751	383.6930541992188	-1133.27099609375	-283.9263305664063	376.1037902832032	-1121.736206054688	-284.1191406250001	293.0967102050782	-1089.081298828125	-357.1079711914063	129.2260894775391	-1123.162841796875	-332.3041381835938	126.3191757202149	-1040.856079101563	-422.9112243652345	85.91436767578126	-1082.45947265625	-190.9420623779297	56.80276107788087	-1068.686645507813	-199.2103881835938	51.3908157348633	-1111.609619140625	-247.1803894042969	31.57357978820801	-1160.236083984375	-251.5399322509766	822.6494140625002	-724.2562255859376	-212.0350494384766	768.8577270507815	-722.5814819335939	-180.6076965332032	772.703796386719	-729.9631347656251	-239.2130737304688	688.2603759765626	-728.3435668945314	-278.7599792480469	548.7491455078126	-746.9883422851564	-244.5103607177735	532.1558227539064	-860.8296508789065	-261.9994506835938	333.1531372070313	-752.5588989257814	-353.2615966796876	277.2457885742188	-740.1751708984376	-308.3670043945313	263.1676940917969	-740.5390014648439	-295.7898864746094	212.4074859619141	-771.219421386719	-371.0960998535157	124.76220703125	-744.0055541992189	-341.2314758300782	137.6615753173828	-829.051452636719	-440.3802490234376	100.746940612793	-793.9244384765627	-215.4380645751954	54.08121871948244	-805.2508544921877	-219.5914001464844	54.45108795166017	-759.0540161132814	-274.6220397949219	35.48996353149415	-707.4070434570314	nan	nan	nan	nan	nan	nan	nan	nan	nan	
275	1.37	-226.5948486328126	1788.372924804688	-813.938659667969	-377.5444335937501	1756.6689453125	-942.2587890625002	-357.6725158691407	1762.365234375	-802.1863403320315	-414.6865234375001	1582.832885742188	-890.4444580078127	-392.643035888672	1273.779541015625	-906.8797607421877	-266.0359497070313	1533.728515625	-885.1990356445315	-325.7860717773438	1594.024169921875	-1051.54833984375	-159.4778137207032	1526.292358398438	-1160.148193359375	-133.2059478759766	1561.62158203125	-1136.6103515625	-89.94345092773439	1531.281005859375	-1164.540161132813	-21.20891571044922	1535.739013671875	-1162.977905273438	-21.50740814208985	1468.401245117188	-1122.6494140625	247.3780364990235	1564.778442382813	-1046.66748046875	254.8956298828126	1566.868774414063	-1122.8994140625	323.8784179687501	1606.104736328125	-1036.630126953125	-316.1194763183594	1581.684326171875	-717.4262695312501	-164.324935913086	1486.872192382813	-609.5177612304689	-131.895751953125	1520.497924804688	-629.3258056640626	-95.34328460693361	1477.80126953125	-604.7383422851564	-31.32421684265137	1485.870361328125	-607.8856811523439	-29.9031162261963	1421.632080078125	-654.6006469726564	260.5472106933594	1512.759643554688	-675.9732055664064	258.2034301757813	1497.119750976563	-601.6045532226564	341.2409973144532	1552.700561523438	-663.6680297851564	-203.9553985595704	1100.767333984375	-1020.009704589844	-201.8088073730469	1091.897705078125	-793.4058837890627	-390.3659667968751	1148.356201171875	-903.223571777344	-390.3612365722657	1116.071411132813	-931.434753417969	-390.7834777832032	1115.9453125	-872.1309814453127	-290.2982482910157	824.5864257812502	-1104.40283203125	-260.6862792968751	745.3017578125001	-1109.94921875	-213.1307373046876	746.3259277343751	-1103.335083007813	-290.8214416503907	693.0685424804689	-1098.635986328125	-300.9556579589844	570.3540039062501	-1103.178466796875	-262.8540954589844	535.9573364257814	-995.5305786132815	-253.896957397461	418.3325805664064	-1096.580932617188	-325.8875122070313	383.6976318359376	-1133.278564453125	-283.8636779785157	376.1322937011719	-1121.732788085938	-284.0505676269532	293.0817260742188	-1089.094116210938	-357.0670471191407	129.2795867919922	-1123.18505859375	-332.3019104003907	126.3532409667969	-1040.873413085938	-422.8777465820314	85.85532379150392	-1082.447265625	-190.8898010253907	56.79738616943361	-1068.724731445313	-199.2323760986329	51.4130096435547	-1111.612060546875	-247.2005462646485	31.52062797546387	-1160.22607421875	-251.4243621826172	822.6633911132815	-724.0816040039064	-211.9939575195313	768.883972167969	-722.4335327148439	-180.4937896728516	772.7119140625002	-729.8107299804689	-239.2041168212891	688.2432861328126	-728.2310791015626	-278.6974792480469	548.7119750976564	-746.9187622070314	-244.4154815673829	532.1229858398439	-860.7374267578127	-261.9519958496094	333.1340637207032	-752.5562744140626	-353.2270507812501	277.2413940429688	-740.1109008789064	-308.3543090820313	263.1466369628907	-740.5307006835939	-295.8185119628907	212.4236297607422	-771.2302856445315	-371.0998229980469	124.774154663086	-743.9962158203126	-341.2286682128907	137.6787567138672	-829.0657348632815	-440.4097595214845	100.7824401855469	-793.9233398437502	-215.4137115478516	54.12648010253908	-805.250183105469	-219.5985412597657	54.44385528564455	-759.0458984375001	-274.6117248535157	35.54750061035157	-707.3605346679689	nan	nan	nan	nan	nan	nan	nan	nan	nan	
